HIERARCHY
ROOT hip
{
  OFFSET 13.2505 84.3174 17.1507
  CHANNELS 6 Xposition Yposition Zposition Zrotation Xrotation Yrotation
  JOINT abdomen
  {
    OFFSET 0 20.6881 -0.73152
    CHANNELS 3 Zrotation Xrotation Yrotation
    JOINT chest
    {
      OFFSET 0 11.7043 -0.48768
      CHANNELS 3 Zrotation Xrotation Yrotation
      JOINT neck
      {
        OFFSET 0 22.1894 -2.19456
        CHANNELS 3 Zrotation Xrotation Yrotation
        JOINT head
        {
          OFFSET -0.24384 7.07133 1.2192
          CHANNELS 3 Zrotation Xrotation Yrotation
          JOINT leftEye
          {
            OFFSET 4.14528 8.04674 8.04672
            CHANNELS 3 Zrotation Xrotation Yrotation
            End Site
            {
              OFFSET 1 0 0
            }
          }
          JOINT rightEye
          {
            OFFSET -3.6576 8.04674 8.04672
            CHANNELS 3 Zrotation Xrotation Yrotation
            End Site
            {
              OFFSET 1 0 0
            }
          }
        }
      }
      JOINT rCollar
      {
        OFFSET -2.68224 19.2634 -4.8768
        CHANNELS 3 Zrotation Xrotation Yrotation
        JOINT rShldr
        {
          OFFSET -8.77824 -1.95073 1.46304
          CHANNELS 3 Zrotation Xrotation Yrotation
          JOINT rForeArm
          {
            OFFSET -28.1742 -1.7115 0.48768
            CHANNELS 3 Zrotation Xrotation Yrotation
            JOINT rHand
            {
              OFFSET -22.5879 0.773209 7.07136
              CHANNELS 3 Zrotation Xrotation Yrotation
              JOINT rThumb1
              {
                OFFSET -1.2192 -0.487915 3.41376
                CHANNELS 3 Zrotation Xrotation Yrotation
                JOINT rThumb2
                {
                  OFFSET -3.37035 -0.52449 3.41376
                  CHANNELS 3 Zrotation Xrotation Yrotation
                  End Site
                  {
                    OFFSET -1.78271 -1.18214 1.43049
                  }
                }
              }
              JOINT rIndex1
              {
                OFFSET -7.75947 0.938293 5.60832
                CHANNELS 3 Zrotation Xrotation Yrotation
                JOINT rIndex2
                {
                  OFFSET -2.54057 -0.884171 1.56538
                  CHANNELS 3 Zrotation Xrotation Yrotation
                  End Site
                  {
                    OFFSET -1.62519 -0.234802 1.16502
                  }
                }
              }
              JOINT rMid1
              {
                OFFSET -8.24714 1.18213 3.41376
                CHANNELS 3 Zrotation Xrotation Yrotation
                JOINT rMid2
                {
                  OFFSET -3.10165 -0.590103 1.0647
                  CHANNELS 3 Zrotation Xrotation Yrotation
                  End Site
                  {
                    OFFSET -2.48547 -0.328903 0.83742
                  }
                }
              }
              JOINT rRing1
              {
                OFFSET -8.82822 0.546677 1.51678
                CHANNELS 3 Zrotation Xrotation Yrotation
                JOINT rRing2
                {
                  OFFSET -2.60934 -0.819778 -0.0198488
                  CHANNELS 3 Zrotation Xrotation Yrotation
                  End Site
                  {
                    OFFSET -2.33842 -0.294052 0.168128
                  }
                }
              }
              JOINT rPinky1
              {
                OFFSET -8.27202 -0.0477905 -0.4584
                CHANNELS 3 Zrotation Xrotation Yrotation
                JOINT rPinky2
                {
                  OFFSET -1.82734 -0.647385 -0.700984
                  CHANNELS 3 Zrotation Xrotation Yrotation
                  End Site
                  {
                    OFFSET -1.69225 -0.51767 -0.607171
                  }
                }
              }
            }
          }
        }
      }
      JOINT lCollar
      {
        OFFSET 2.68224 19.2634 -4.8768
        CHANNELS 3 Zrotation Xrotation Yrotation
        JOINT lShldr
        {
          OFFSET 8.77824 -1.95073 1.46304
          CHANNELS 3 Zrotation Xrotation Yrotation
          JOINT lForeArm
          {
            OFFSET 28.1742 -1.7115 0.48768
            CHANNELS 3 Zrotation Xrotation Yrotation
            JOINT lHand
            {
              OFFSET 22.5879 0.773209 7.07136
              CHANNELS 3 Zrotation Xrotation Yrotation
              JOINT lThumb1
              {
                OFFSET 1.2192 -0.487915 3.41376
                CHANNELS 3 Zrotation Xrotation Yrotation
                JOINT lThumb2
                {
                  OFFSET 3.37035 -0.52449 3.41376
                  CHANNELS 3 Zrotation Xrotation Yrotation
                  End Site
                  {
                    OFFSET 1.78271 -1.18214 1.43049
                  }
                }
              }
              JOINT lIndex1
              {
                OFFSET 7.75947 0.938293 5.60832
                CHANNELS 3 Zrotation Xrotation Yrotation
                JOINT lIndex2
                {
                  OFFSET 2.54057 -0.884171 1.56538
                  CHANNELS 3 Zrotation Xrotation Yrotation
                  End Site
                  {
                    OFFSET 1.62519 -0.234802 1.16502
                  }
                }
              }
              JOINT lMid1
              {
                OFFSET 8.24714 1.18213 3.41376
                CHANNELS 3 Zrotation Xrotation Yrotation
                JOINT lMid2
                {
                  OFFSET 3.10165 -0.590103 1.0647
                  CHANNELS 3 Zrotation Xrotation Yrotation
                  End Site
                  {
                    OFFSET 2.48547 -0.328903 0.83742
                  }
                }
              }
              JOINT lRing1
              {
                OFFSET 8.82822 0.546677 1.51678
                CHANNELS 3 Zrotation Xrotation Yrotation
                JOINT lRing2
                {
                  OFFSET 2.60934 -0.819778 -0.0198488
                  CHANNELS 3 Zrotation Xrotation Yrotation
                  End Site
                  {
                    OFFSET 2.33842 -0.294052 0.168128
                  }
                }
              }
              JOINT lPinky1
              {
                OFFSET 8.27202 -0.0477905 -0.4584
                CHANNELS 3 Zrotation Xrotation Yrotation
                JOINT lPinky2
                {
                  OFFSET 1.82734 -0.647385 -0.700984
                  CHANNELS 3 Zrotation Xrotation Yrotation
                  End Site
                  {
                    OFFSET 1.69225 -0.51767 -0.607171
                  }
                }
              }
            }
          }
        }
      }
    }
  }
  JOINT rButtock
  {
    OFFSET -8.77824 4.35084 1.2192
    CHANNELS 3 Zrotation Xrotation Yrotation
    JOINT rThigh
    {
      OFFSET 0 -1.70687 -2.19456
      CHANNELS 3 Zrotation Xrotation Yrotation
      JOINT rShin
      {
        OFFSET 0 -36.8199 0.73152
        CHANNELS 3 Zrotation Xrotation Yrotation
        JOINT rFoot
        {
          OFFSET 0.73152 -45.1104 -5.12064
          CHANNELS 3 Zrotation Xrotation Yrotation
          End Site
          {
            OFFSET -1.1221 -3.69964 12.103
          }
        }
      }
    }
  }
  JOINT lButtock
  {
    OFFSET 8.77824 4.35084 1.2192
    CHANNELS 3 Zrotation Xrotation Yrotation
    JOINT lThigh
    {
      OFFSET 0 -1.70687 -2.19456
      CHANNELS 3 Zrotation Xrotation Yrotation
      JOINT lShin
      {
        OFFSET 0 -36.8199 0.73152
        CHANNELS 3 Zrotation Xrotation Yrotation
        JOINT lFoot
        {
          OFFSET -0.73152 -45.1104 -5.12064
          CHANNELS 3 Zrotation Xrotation Yrotation
          End Site
          {
            OFFSET 1.1221 -3.69964 12.103
          }
        }
      }
    }
  }
}
MOTION
Frames:	8
Frame Time:	0.00833333
0.510467 85.1968 17.7223 -0.443816 -0.00111774 0.007581 0.583968 -0.00303824 0.0166886 0.16117 -0.0046852 0.0279253 -2.24465e-015 0 -1.86361e-017 -6.9761e-015 3.18055e-015 -4.50372e-017 -0 0 0 -0 0 0 -1.09461e-015 1.2424e-017 1.49089e-016 -2.15035e-014 -2.48481e-017 7.95139e-016 -4.04527e-013 1.30204e-013 -1.27222e-014 -4.67966e-012 -8.26447e-014 -3.49861e-014 -1.1033e-011 1.04963e-013 -8.5875e-014 -1.90635e-011 1.78111e-013 -1.60618e-013 -1.10298e-011 1.05356e-013 -9.54166e-014 7.73091 5.47488 0.417314 -1.1034e-011 1.04561e-013 -9.22361e-014 2.90554 0.965183 0.102902 -1.1031e-011 1.04163e-013 -9.14409e-014 10.2786 0.731801 0.0259123 -1.10385e-011 1.08934e-013 -8.5875e-014 2.22167 -0.733487 -0.20892 -1.19149e-015 1.2424e-017 -1.49089e-016 -2.5818e-014 1.61513e-016 -1.19271e-015 -4.1377e-013 -1.13904e-013 1.27222e-014 -4.67573e-012 1.64122e-013 -4.45278e-014 -1.10371e-011 1.09968e-013 -8.90555e-014 -1.90531e-011 1.84472e-013 -1.55052e-013 -1.10417e-011 1.09332e-013 -8.26944e-014 -7.73091 5.47488 -0.417314 -1.10357e-011 1.09232e-013 -9.85972e-014 -2.90554 0.965183 -0.102902 -1.10438e-011 1.09729e-013 -9.06458e-014 -10.2786 0.731801 -0.0259123 -1.10335e-011 1.11717e-013 -9.85972e-014 -2.22167 -0.733487 0.20892 -2.03217e-016 0 -3.88251e-019 0.940004 -4.56521 -0.0787571 -0.0019131 2.71742 -0.00754305 -0.501055 1.84803 0.0947619 2.03217e-016 0 3.88251e-019 -0.0507451 -2.31868 0.0217182 0.00816003 -1.35176 0.0697835 0.492766 3.67058 -0.130802 
0.670114 85.187 18.4085 0.123108 -1.08564 -0.932826 -0.338013 2.08937 1.13139 0.220496 -0.721467 0.338523 -1.43794 1.57582 -0.211883 3.59431 -5.73151 0.49372 -0 0 0 -0 0 0 -9.46892e-015 1.29688e-014 2.22491e-014 19.5974 14.4107 0.75331 -17.7203 -15.2526 15.0491 0.00747999 -1.93691 -0.271674 -8.44849e-012 -2.49218e-010 3.88387e-011 -1.50853e-011 -4.29746e-010 6.70241e-011 -8.44576e-012 -2.49208e-010 3.88281e-011 7.73091 5.47488 0.417314 -8.44991e-012 -2.49213e-010 3.8833e-011 2.90554 0.965183 0.102902 -8.44427e-012 -2.49209e-010 3.88332e-011 10.2786 0.731801 0.0259123 -8.4542e-012 -2.49213e-010 3.88414e-011 2.22167 -0.733487 -0.20892 -9.56999e-015 1.29685e-014 2.19645e-014 -20.3046 17.4913 -3.94965 20.1633 -17.9222 -15.1597 -0.0334018 -4.05687 0.56501 2.35312e-011 -5.25619e-010 -1.31746e-010 4.19496e-011 -9.09295e-010 -2.27103e-010 2.3525e-011 -5.25614e-010 -1.31736e-010 -7.73091 5.47488 -0.417314 2.35323e-011 -5.25619e-010 -1.31752e-010 -2.90554 0.965183 -0.102902 2.35229e-011 -5.25614e-010 -1.31744e-010 -10.2786 0.731801 -0.0259123 2.35348e-011 -5.25619e-010 -1.31756e-010 -2.22167 -0.733487 0.20892 -2.03217e-016 0 -3.88251e-019 0.346745 -2.28694 5.23368 0.00285077 5.07155 0.0565829 -0.993261 -1.34678 -6.7009 2.03217e-016 0 3.88251e-019 0.394545 -0.112126 -2.92092 0.00374659 0.406492 0.0250535 0.708239 1.23943 5.02159 
0.72474 85.1708 18.3645 0.685055 -2.23171 -1.94248 -1.40416 4.30246 2.32991 0.291301 -1.47975 0.671221 -2.94207 3.2402 -0.437324 7.50213 -11.7948 1.03048 -0 0 0 -0 0 0 -1.80937e-014 2.55864e-014 4.73294e-014 39.859 29.6054 1.69918 -27.2085 -27.6962 34.1955 -0.00465909 -3.95368 -0.555611 -5.52968e-012 -4.15846e-010 6.29255e-011 -1.04537e-011 -7.16526e-010 1.08548e-010 -5.5276e-012 -4.15824e-010 6.29138e-011 7.73091 5.47488 0.417314 -5.53162e-012 -4.15834e-010 6.29205e-011 2.90554 0.965183 0.102902 -5.52311e-012 -4.15825e-010 6.292e-011 10.2786 0.731801 0.0259123 -5.53568e-012 -4.1584e-010 6.29311e-011 2.22167 -0.733487 -0.20892 -1.81981e-014 2.55859e-014 4.70592e-014 -38.6151 35.6698 -9.54504 30.0734 -32.4238 -35.8664 0.0190943 -8.33383 1.17034 6.51652e-011 -1.07146e-009 -2.62438e-010 1.15128e-010 -1.85323e-009 -4.52299e-010 6.51573e-011 -1.07145e-009 -2.62424e-010 -7.73091 5.47488 -0.417314 6.51658e-011 -1.07146e-009 -2.6244e-010 -2.90554 0.965183 -0.102902 6.51552e-011 -1.07145e-009 -2.62431e-010 -10.2786 0.731801 -0.0259123 6.51689e-011 -1.07146e-009 -2.62448e-010 -2.22167 -0.733487 0.20892 -2.03217e-016 0 -3.88251e-019 -0.739772 0.0952905 10.8525 0.0021025 7.56375 0.12502 -2.33126 -4.60201 -13.9242 2.03217e-016 0 3.88251e-019 1.10894 2.2154 -6.02169 0.00206839 2.25787 -0.0220893 1.40854 -1.29987 10.4676 
0.766538 85.1771 18.3573 1.15006 -3.2512 -2.81768 -2.42732 6.2646 3.37872 0.362474 -2.15477 0.960315 -4.27875 4.72721 -0.637578 11.091 -17.1893 1.54268 -0 0 0 -0 0 0 -2.62176e-014 3.88815e-014 6.64492e-014 57.2981 43.1963 3.00309 -28.5631 -32.2035 54.4712 -0.0329048 -5.81021 -0.818763 -3.27937e-012 -7.47864e-010 1.16688e-010 -7.12914e-012 -1.2896e-009 2.01394e-010 -3.27776e-012 -7.47834e-010 1.16675e-010 7.73091 5.47488 0.417314 -3.28166e-012 -7.47848e-010 1.16684e-010 2.90554 0.965183 0.102902 -3.2709e-012 -7.47835e-010 1.16682e-010 10.2786 0.731801 0.0259123 -3.28557e-012 -7.47858e-010 1.16696e-010 2.22167 -0.733487 -0.20892 -2.6327e-014 3.88808e-014 6.61918e-014 -50.1095 51.1621 -18.2076 29.8095 -36.9467 -58.9719 0.144486 -12.1658 1.72964 9.26676e-011 -1.57708e-009 -3.95061e-010 1.63955e-010 -2.72825e-009 -6.80998e-010 9.26584e-011 -1.57706e-009 -3.95043e-010 -7.73091 5.47488 -0.417314 9.26682e-011 -1.57708e-009 -3.95059e-010 -2.90554 0.965183 -0.102902 9.26563e-011 -1.57706e-009 -3.9505e-010 -10.2786 0.731801 -0.0259123 9.26716e-011 -1.57708e-009 -3.9507e-010 -2.22167 -0.733487 0.20892 -2.03217e-016 0 -3.88251e-019 -2.09275 2.15572 15.857 -0.00364241 9.77975 0.186869 -4.21568 -7.27987 -20.4587 2.03217e-016 0 3.88251e-019 1.96363 4.24975 -8.83061 0.00315964 3.923 -0.0645208 2.43736 -3.48013 15.3513 
0.752789 85.1922 18.3222 1.45086 -3.95784 -3.35272 -3.16344 7.60909 4.03551 0.417566 -2.6219 1.13981 -5.22177 5.77108 -0.773018 13.6624 -20.9166 1.93526 -0 0 0 -0 0 0 -3.30893e-014 5.38703e-014 7.0668e-014 68.6592 52.8015 4.65104 -27.9978 -30.599 68.2056 -0.0652028 -7.2666 -1.02682 -2.70032e-012 -1.49336e-009 2.44639e-010 -7.07236e-012 -2.57839e-009 4.22545e-010 -2.6987e-012 -1.49333e-009 2.44626e-010 7.73091 5.47488 0.417314 -2.70253e-012 -1.49334e-009 2.44636e-010 2.90554 0.965183 0.102902 -2.69104e-012 -1.49333e-009 2.44634e-010 10.2786 0.731801 0.0259123 -2.70645e-012 -1.49335e-009 2.44648e-010 2.22167 -0.733487 -0.20892 -3.32076e-014 5.38697e-014 7.04195e-014 -52.3224 60.9524 -29.4613 28.3937 -34.1637 -73.968 0.279882 -14.8899 2.14156 8.48413e-011 -1.98215e-009 -5.32508e-010 1.51902e-010 -3.43102e-009 -9.18457e-010 8.48318e-011 -1.98213e-009 -5.32488e-010 -7.73091 5.47488 -0.417314 8.48425e-011 -1.98215e-009 -5.32504e-010 -2.90554 0.965183 -0.102902 8.48296e-011 -1.98213e-009 -5.32495e-010 -10.2786 0.731801 -0.0259123 8.48455e-011 -1.98215e-009 -5.32517e-010 -2.22167 -0.733487 0.20892 -2.03217e-016 0 -3.88251e-019 -3.23266 3.54987 19.3023 -0.0104546 11.3053 0.230471 -5.9036 -8.96755 -25.094 2.03217e-016 0 3.88251e-019 2.69226 5.6038 -10.8795 0.00545643 5.1225 -0.0949773 3.37557 -4.92147 18.7842 
0.77889 85.1897 18.2814 1.55526 -4.22465 -3.38464 -3.41352 8.08848 4.1054 0.447167 -2.80093 1.15842 -5.63134 6.2006 -0.812381 14.7055 -22.3092 2.12566 -0 0 0 -0 0 0 -3.95749e-014 7.41792e-014 5.00347e-014 72.3962 56.8709 6.05736 -27.9773 -29.0349 73.1274 -0.0870689 -8.14557 -1.15311 -7.6413e-012 -3.07989e-009 5.20391e-010 -1.73091e-011 -5.32246e-009 8.99267e-010 -7.63887e-012 -3.07987e-009 5.20379e-010 7.73091 5.47488 0.417314 -7.64266e-012 -3.07989e-009 5.2039e-010 2.90554 0.965183 0.102902 -7.63311e-012 -3.07987e-009 5.20388e-010 10.2786 0.731801 0.0259123 -7.64694e-012 -3.07989e-009 5.204e-010 2.22167 -0.733487 -0.20892 -3.97157e-014 7.41793e-014 4.97886e-014 -50.5229 64.3661 -36.3998 28.3075 -31.9616 -78.9007 0.347909 -16.0416 2.31998 1.51628e-011 -2.25955e-009 -6.93333e-010 3.3365e-011 -3.9158e-009 -1.19699e-009 1.51547e-011 -2.25953e-009 -6.93316e-010 -7.73091 5.47488 -0.417314 1.51663e-011 -2.25955e-009 -6.9333e-010 -2.90554 0.965183 -0.102902 1.51523e-011 -2.25953e-009 -6.93322e-010 -10.2786 0.731801 -0.0259123 1.51675e-011 -2.25955e-009 -6.93342e-010 -2.22167 -0.733487 0.20892 -2.03217e-016 0 -3.88251e-019 -3.69121 4.13196 20.5083 -0.0135233 11.8598 0.247421 -6.65896 -9.60293 -26.9535 2.03217e-016 0 3.88251e-019 3.03722 6.03202 -11.8628 0.00691456 5.6781 -0.108617 3.79296 -5.45292 20.1441 
0.789851 85.1926 18.2691 1.5257 -4.17793 -3.05768 -3.30224 7.95145 3.75441 0.456934 -2.77409 1.06235 -5.66208 6.19108 -0.782942 14.6282 -22.0355 2.15747 -0 0 0 -0 0 0 -4.57195e-014 9.8148e-014 1.18401e-014 71.1999 57.0044 6.82978 -28.0019 -29.4357 72.9831 -0.096948 -8.61305 -1.22031 -1.63737e-011 -5.25468e-009 8.99623e-010 -3.46261e-011 -9.08444e-009 1.55492e-009 -1.63699e-011 -5.25468e-009 8.99614e-010 7.73091 5.47488 0.417314 -1.63737e-011 -5.25469e-009 8.99624e-010 2.90554 0.965183 0.102902 -1.63679e-011 -5.25468e-009 8.99622e-010 10.2786 0.731801 0.0259123 -1.63786e-011 -5.25469e-009 8.99632e-010 2.22167 -0.733487 -0.20892 -4.58922e-014 9.81491e-014 1.15916e-014 -50.2196 64.1553 -36.1332 28.3038 -32.3379 -78.588 0.347182 -16.0722 2.3243 -9.81058e-011 -2.44512e-009 -8.70065e-010 -1.60221e-010 -4.24377e-009 -1.50349e-009 -9.81112e-011 -2.44512e-009 -8.70052e-010 -7.73091 5.47488 -0.417314 -9.80989e-011 -2.44513e-009 -8.70065e-010 -2.90554 0.965183 -0.102902 -9.81138e-011 -2.44511e-009 -8.70058e-010 -10.2786 0.731801 -0.0259123 -9.81004e-011 -2.44512e-009 -8.70074e-010 -2.22167 -0.733487 0.20892 -2.03217e-016 0 -3.88251e-019 -3.57707 4.16916 20.1057 -0.0127288 11.7209 0.245028 -6.6007 -9.58348 -26.7997 2.03217e-016 0 3.88251e-019 3.05695 5.81239 -12.0764 0.00712762 5.77339 -0.110164 3.74943 -5.37246 20.0104 
0.79016 85.1985 18.2672 1.44164 -4.01223 -2.62598 -3.05952 7.57828 3.2772 0.452047 -2.66043 0.931708 -5.53065 5.9965 -0.732467 14.095 -21.1023 2.11108 -0 0 0 -0 0 0 -4.95408e-014 1.18862e-013 -2.69943e-014 68.1747 55.5447 7.22757 -28.054 -30.6891 70.8321 -0.10141 -8.94396 -1.26768 -2.15343e-011 -7.2453e-009 1.24995e-009 -4.56253e-011 -1.25283e-008 2.16065e-009 -2.15291e-011 -7.24532e-009 1.24994e-009 7.73091 5.47488 0.417314 -2.15329e-011 -7.24533e-009 1.24995e-009 2.90554 0.965183 0.102902 -2.15309e-011 -7.24532e-009 1.24995e-009 10.2786 0.731801 0.0259123 -2.15383e-011 -7.24531e-009 1.24996e-009 2.22167 -0.733487 -0.20892 -4.9736e-014 1.18864e-013 -2.72451e-014 -50.6479 62.5263 -32.8517 28.3367 -33.78 -76.1882 0.319328 -15.6939 2.2645 -2.08983e-010 -2.57303e-009 -1.02656e-009 -3.49821e-010 -4.47194e-009 -1.77507e-009 -2.08986e-010 -2.57303e-009 -1.02655e-009 -7.73091 5.47488 -0.417314 -2.08973e-010 -2.57303e-009 -1.02656e-009 -2.90554 0.965183 -0.102902 -2.08989e-010 -2.57302e-009 -1.02656e-009 -10.2786 0.731801 -0.0259123 -2.08977e-010 -2.57303e-009 -1.02657e-009 -2.22167 -0.733487 0.20892 -2.03217e-016 0 -3.88251e-019 -3.24012 3.98113 19.0988 -0.0105386 11.3117 0.234884 -6.21075 -9.29402 -25.841 2.03217e-016 0 3.88251e-019 2.93748 5.35627 -11.9439 0.00672882 5.6718 -0.106614 3.52218 -5.04942 19.2782 
